<svg width="22" height="20" viewBox="0 0 22 20" fill="none" xmlns="http://www.w3.org/2000/svg">
<path fill-rule="evenodd" clip-rule="evenodd" d="M20.1492 2.66512C19.8786 2.49596 19.4736 2.375 19 2.375C18.5264 2.375 18.1214 2.49596 17.8508 2.66512C17.5731 2.83867 17.5 3.01442 17.5 3.125C17.5 3.23558 17.5731 3.41133 17.8508 3.58488C18.1214 3.75404 18.5264 3.875 19 3.875C19.4736 3.875 19.8786 3.75404 20.1492 3.58488C20.4269 3.41133 20.5 3.23558 20.5 3.125C20.5 3.01442 20.4269 2.83867 20.1492 2.66512ZM20.6792 1.81712C21.1254 2.09597 21.5 2.54522 21.5 3.125C21.5 3.70478 21.1254 4.15403 20.6792 4.43288C20.226 4.71614 19.631 4.875 19 4.875C18.369 4.875 17.774 4.71614 17.3208 4.43288C16.8746 4.15403 16.5 3.70478 16.5 3.125C16.5 2.54522 16.8746 2.09597 17.3208 1.81712C17.774 1.53386 18.369 1.375 19 1.375C19.631 1.375 20.226 1.53386 20.6792 1.81712Z" fill="white"/>
<path fill-rule="evenodd" clip-rule="evenodd" d="M18.5 20V4.375H19.5V20H18.5Z" fill="white"/>
<path fill-rule="evenodd" clip-rule="evenodd" d="M4.14921 2.66512C3.87857 2.49596 3.47357 2.375 3 2.375C2.52643 2.375 2.12143 2.49596 1.85079 2.66512C1.5731 2.83867 1.5 3.01442 1.5 3.125C1.5 3.23558 1.5731 3.41133 1.85079 3.58488C2.12143 3.75404 2.52643 3.875 3 3.875C3.47357 3.875 3.87857 3.75404 4.14921 3.58488C4.4269 3.41133 4.5 3.23558 4.5 3.125C4.5 3.01442 4.4269 2.83867 4.14921 2.66512ZM4.67921 1.81712C5.12538 2.09597 5.5 2.54522 5.5 3.125C5.5 3.70478 5.12538 4.15403 4.67921 4.43288C4.226 4.71614 3.631 4.875 3 4.875C2.369 4.875 1.774 4.71614 1.32079 4.43288C0.874619 4.15403 0.5 3.70478 0.5 3.125C0.5 2.54522 0.874619 2.09597 1.32079 1.81712C1.774 1.53386 2.369 1.375 3 1.375C3.631 1.375 4.226 1.53386 4.67921 1.81712Z" fill="white"/>
<path fill-rule="evenodd" clip-rule="evenodd" d="M2.5 20L2.5 4.375H3.5L3.5 20H2.5Z" fill="white"/>
<path fill-rule="evenodd" clip-rule="evenodd" d="M12.1492 16.4151C11.8786 16.246 11.4736 16.125 11 16.125C10.5264 16.125 10.1214 16.246 9.85079 16.4151C9.5731 16.5887 9.5 16.7644 9.5 16.875C9.5 16.9856 9.5731 17.1613 9.85079 17.3349C10.1214 17.504 10.5264 17.625 11 17.625C11.4736 17.625 11.8786 17.504 12.1492 17.3349C12.4269 17.1613 12.5 16.9856 12.5 16.875C12.5 16.7644 12.4269 16.5887 12.1492 16.4151ZM12.6792 15.5671C13.1254 15.846 13.5 16.2952 13.5 16.875C13.5 17.4548 13.1254 17.904 12.6792 18.1829C12.226 18.4661 11.631 18.625 11 18.625C10.369 18.625 9.774 18.4661 9.32079 18.1829C8.87462 17.904 8.5 17.4548 8.5 16.875C8.5 16.2952 8.87462 15.846 9.32079 15.5671C9.774 15.2839 10.369 15.125 11 15.125C11.631 15.125 12.226 15.2839 12.6792 15.5671Z" fill="white"/>
<path fill-rule="evenodd" clip-rule="evenodd" d="M11.5 0L11.5 15.625H10.5L10.5 0L11.5 0Z" fill="white"/>
<path fill-rule="evenodd" clip-rule="evenodd" d="M19.5 0V1.875H18.5V0L19.5 0Z" fill="white"/>
<path fill-rule="evenodd" clip-rule="evenodd" d="M10.5 20V18.125H11.5V20H10.5Z" fill="white"/>
<path fill-rule="evenodd" clip-rule="evenodd" d="M3.5 0V1.875H2.5V0L3.5 0Z" fill="white"/>
</svg>
