<svg width="75" height="75" viewBox="0 0 75 75" fill="none" xmlns="http://www.w3.org/2000/svg">
<path d="M0 0H75V75H0V0Z" fill="black"/>
<path d="M14.0625 5.71289C13.3667 5.71289 12.7898 5.76973 12.2149 6.06226C11.6398 6.35478 11.1479 7.07974 11.1001 7.69937C11.0049 8.93862 11.6004 9.59194 12.0532 10.3463C12.5058 11.101 12.9643 11.8613 13.1413 12.3921C13.3185 12.9229 13.328 12.933 13.1306 13.1304L13.1254 13.1354L13.1205 13.1405C7.0749 19.3184 3.36914 28.2151 3.36914 37.5C3.36914 49.8905 10.597 60.7705 20.4076 66.7509C25.8012 70.0386 31.3503 69.2871 37.5 69.2871C43.5653 69.2871 49.2349 69.9573 54.583 66.7563C64.5258 60.8057 71.6309 49.9721 71.6309 37.5C71.6309 28.2396 67.8932 19.3154 61.8819 13.1426L61.876 13.1364L61.8696 13.1306C61.6721 12.9328 61.6818 12.9226 61.8587 12.392C62.0355 11.8611 62.4939 11.1009 62.9467 10.3463C63.3993 9.59194 63.9949 8.93862 63.8997 7.69937C63.852 7.07974 63.3601 6.35493 62.785 6.0624C62.2102 5.76973 61.6333 5.71289 60.9375 5.71289H14.0625ZM14.0625 8.34961H60.9375C60.9781 8.34961 60.9561 8.354 60.9932 8.35503C60.9076 8.5522 60.8335 8.74409 60.686 8.9896C60.2597 9.69976 59.6928 10.5508 59.3571 11.5581C59.0216 12.5654 59.0312 14.0202 60.0056 14.9946L59.9933 14.9821C65.4955 20.6326 68.9941 28.9537 68.9941 37.5C68.9941 48.9691 62.4371 58.9827 53.2295 64.4937C48.7373 67.1821 43.7369 66.6504 37.5 66.6504C31.1572 66.6504 26.3259 67.2705 21.7799 64.4991C12.6929 58.96 6.00586 48.8607 6.00586 37.5C6.00586 28.9206 9.47065 20.6399 15.0047 14.9846L14.9944 14.9946C15.969 14.0205 15.9788 12.5656 15.6429 11.5581C15.307 10.551 14.74 9.6999 14.3139 8.9896C14.1665 8.74395 14.0922 8.55205 14.0068 8.35488C14.0439 8.35371 14.0219 8.34946 14.0625 8.34946V8.34961ZM26.8775 17.3938C26.4176 17.3924 25.9408 17.4019 25.4517 17.4211C22.5173 17.5361 19.1357 17.9985 16.1811 18.4783C15.8629 18.5298 15.56 18.5817 15.2536 18.6335C14.4664 19.4635 13.7436 20.4608 13.0856 21.5801C13.0601 21.6234 13.0358 21.668 13.0103 21.7119C14.0591 21.5147 15.2788 21.2959 16.6039 21.0809C20.4675 20.4536 25.1436 19.8908 28.0458 20.066C33.993 20.4252 39.8817 24.336 46.7958 24.7535C50.181 24.958 54.8795 24.3488 58.8192 23.7091C60.2583 23.4756 61.5863 23.2365 62.6996 23.0257C62.393 22.39 62.0689 21.7733 61.7247 21.1878C61.6053 20.9848 61.483 20.7873 61.3594 20.5926C60.4597 20.7579 59.4634 20.9332 58.3963 21.1065C54.5326 21.7337 49.8565 22.2965 46.9544 22.1213C41.0071 21.7622 35.1185 17.8513 28.2044 17.4338C27.7813 17.4082 27.3378 17.3953 26.8775 17.3937V17.3938ZM17.1927 23.659L12.7944 24.0809C10.554 28.199 9.37857 32.8119 9.375 37.5C9.38133 41.4039 10.2003 45.2636 11.7798 48.8337C13.3593 52.4038 15.6647 55.6059 18.5493 58.2363C14.8611 52.8108 12.8839 46.4042 12.873 39.8438C12.8884 34.1659 14.3769 28.5893 17.1929 23.659H17.1927ZM53.9319 25.627C52.9995 25.627 52.1053 25.9974 51.446 26.6567C50.7867 27.316 50.4163 28.2102 50.4163 29.1426C50.4163 30.075 50.7867 30.9692 51.446 31.6285C52.1053 32.2879 52.9995 32.6583 53.9319 32.6583C54.8643 32.6583 55.7585 32.2879 56.4178 31.6285C57.0771 30.9692 57.4475 30.075 57.4475 29.1426C57.4475 28.2102 57.0771 27.316 56.4178 26.6567C55.7585 25.9974 54.8643 25.627 53.9319 25.627ZM58.448 37.1202C57.8264 37.1202 57.2303 37.3671 56.7907 37.8066C56.3512 38.2462 56.1042 38.8423 56.1042 39.4639C56.1042 40.0855 56.3512 40.6817 56.7907 41.1212C57.2303 41.5607 57.8264 41.8077 58.448 41.8077C59.0696 41.8077 59.6657 41.5607 60.1053 41.1212C60.5448 40.6817 60.7917 40.0855 60.7917 39.4639C60.7917 38.8423 60.5448 38.2462 60.1053 37.8066C59.6657 37.3671 59.0696 37.1202 58.448 37.1202ZM44.6747 39.8369C40.4205 39.9042 32.8572 44.1819 29.6041 46.0192C27.5164 43.9931 25.2078 42.1875 21.0938 42.1875C23.4375 44.5312 23.4375 49.2188 21.0938 51.5625C25.207 51.5625 26.5639 48.3171 29.3953 48.3152C32.2266 48.3135 42.3917 54.6338 46.875 53.9062C52.505 52.9926 56.25 49.2188 56.25 46.875C56.041 43.274 49.239 40.0617 45.0762 39.8438C44.9458 39.837 44.8121 39.8347 44.6748 39.8369H44.6747ZM49.2188 42.9763C49.6387 42.9763 50.0414 43.1431 50.3383 43.44C50.6353 43.7369 50.8022 44.1396 50.8022 44.5595C50.8022 44.9795 50.6354 45.3823 50.3385 45.6792C50.0415 45.9762 49.6387 46.143 49.2188 46.143C48.7988 46.143 48.396 45.9762 48.099 45.6792C47.8021 45.3823 47.6353 44.9795 47.6353 44.5595C47.6353 44.1396 47.8022 43.7369 48.0992 43.44C48.3961 43.1431 48.7988 42.9763 49.2188 42.9763Z" fill="white"/>
</svg>
