<?xml version="1.0" ?><svg viewBox="0 0 32 32" xmlns="http://www.w3.org/2000/svg"><title/><g data-name="Layer 2" id="Layer_2"><path d="M27.5,13.43a.5.5,0,0,0-.5-.5H25V10c0-3.71-3.85-6.5-9-6.5S7,6.29,7,10v2.93H5a.5.5,0,0,0-.5.5v4.28a.5.5,0,0,0,.5.5H6.23L7,28a.5.5,0,0,0,.5.46H24.46A.5.5,0,0,0,25,28l.81-9.83H27a.5.5,0,0,0,.35-.14.49.49,0,0,0,.15-.36ZM8,10c0-3.14,3.42-5.5,8-5.5s8,2.36,8,5.5v2.93H8ZM24,27.5H8l-.76-9.29H24.76Zm1.31-10.29H5.5V13.93h21v3.28Z"/><path d="M16,25.07a.5.5,0,0,0,.5-.5V20.29a.5.5,0,0,0-.5-.5.5.5,0,0,0-.5.5v4.28A.5.5,0,0,0,16,25.07Z"/><path d="M21.08,25.07a.5.5,0,0,0,.5-.5V20.29a.5.5,0,0,0-.5-.5.5.5,0,0,0-.5.5v4.28A.5.5,0,0,0,21.08,25.07Z"/><path d="M10.92,25.07a.5.5,0,0,0,.5-.5V20.29a.5.5,0,0,0-.5-.5.5.5,0,0,0-.5.5v4.28A.5.5,0,0,0,10.92,25.07Z"/></g></svg>