<svg width="47" height="30" viewBox="0 0 47 30" fill="none" xmlns="http://www.w3.org/2000/svg">
<path fill-rule="evenodd" clip-rule="evenodd" d="M19.7458 6.57662L18.4881 3.45492C18.4881 3.45492 29.1847 -1.37113 34.6462 2.50993C36.6941 3.96536 37.5537 5.37683 37.828 6.5727" fill="white"/>
<path fill-rule="evenodd" clip-rule="evenodd" d="M19.1352 3.72305L20.2095 6.38978C20.3127 6.64592 20.1887 6.93721 19.9326 7.0404C19.6765 7.14358 19.3852 7.0196 19.282 6.76346L18.0244 3.64176C17.9241 3.39299 18.038 3.10945 18.2825 2.99916L18.4881 3.45492C18.2825 2.99916 18.2823 2.99924 18.2825 2.99916L18.2853 2.99788L18.2921 2.99487L18.317 2.98382C18.3386 2.97426 18.3703 2.96039 18.4114 2.94262C18.4937 2.90709 18.6141 2.85596 18.7686 2.79255C19.0777 2.66576 19.5237 2.48972 20.0754 2.29105C21.1779 1.8941 22.7078 1.40486 24.414 1.03818C26.118 0.672005 28.0139 0.424509 29.8437 0.52095C31.672 0.617309 33.4675 1.05895 34.9358 2.10235C37.0549 3.60831 38.0066 5.11506 38.3153 6.46091C38.3771 6.73007 38.2089 6.99831 37.9398 7.06004C37.6706 7.12178 37.4024 6.95363 37.3406 6.68448C37.1007 5.63859 36.3334 4.32238 34.3565 2.91749C33.0941 2.02036 31.5044 1.60987 29.7911 1.51956C28.0793 1.42934 26.277 1.66066 24.6241 2.01586C22.9736 2.37057 21.488 2.84527 20.4142 3.23192C19.8778 3.42505 19.4455 3.59573 19.1482 3.7177C19.1439 3.7195 19.1395 3.72128 19.1352 3.72305Z" fill="black"/>
<path fill-rule="evenodd" clip-rule="evenodd" d="M9.17133 17.1294C11.2096 19.3451 20.532 29 28.2111 29C36.8854 29 46.1611 22.8658 46.1611 16.68C46.1611 10.4943 36.8854 4.36011 28.2111 4.36011C20.7508 4.36011 11.7391 13.4729 9.36279 16.0237" fill="white"/>
<path fill-rule="evenodd" clip-rule="evenodd" d="M16.5815 8.83455C20.0759 6.22867 24.3074 3.86011 28.2111 3.86011C32.6573 3.86011 37.2413 5.42894 40.7195 7.78654C44.1766 10.1298 46.6611 13.3411 46.6611 16.68C46.6611 20.0189 44.1766 23.2303 40.7195 25.5735C37.2413 27.9311 32.6573 29.5 28.2111 29.5C24.1944 29.5 19.8287 26.992 16.2736 24.2938C12.6946 21.5775 9.83154 18.5856 8.80335 17.4679C8.6164 17.2647 8.62958 16.9484 8.83281 16.7615C9.03604 16.5745 9.35234 16.5877 9.5393 16.7909C10.5494 17.8889 13.3667 20.8322 16.8782 23.4973C20.4136 26.1805 24.5487 28.5 28.2111 28.5C32.4392 28.5 36.8302 27.0017 40.1584 24.7458C43.5078 22.4755 45.6611 19.5268 45.6611 16.68C45.6611 13.8332 43.5078 10.8846 40.1584 8.61431C36.8302 6.35838 32.4392 4.86011 28.2111 4.86011C24.6545 4.86011 20.65 7.04796 17.1794 9.63618C13.7312 12.2076 10.9074 15.0992 9.72864 16.3645C9.54041 16.5666 9.22402 16.5778 9.02197 16.3896C8.81993 16.2013 8.80872 15.8849 8.99695 15.6829C10.1945 14.3975 13.0647 11.4572 16.5815 8.83455Z" fill="black"/>
<path d="M39.4298 16.68C40.256 16.68 40.9257 15.6772 40.9257 14.4401C40.9257 13.2029 40.256 12.2001 39.4298 12.2001C38.6037 12.2001 37.934 13.2029 37.934 14.4401C37.934 15.6772 38.6037 16.68 39.4298 16.68Z" fill="white"/>
<path fill-rule="evenodd" clip-rule="evenodd" d="M9.51312 16.169C9.51312 16.169 -2.28342 4.64147 3.38056 16.2858C3.38056 16.2858 -1.06786 19.4926 3.00118 21.8476C7.07023 24.2024 9.51312 16.169 9.51312 16.169Z" fill="white"/>
<path fill-rule="evenodd" clip-rule="evenodd" d="M9.86234 15.8112C9.86248 15.8113 9.86257 15.8114 9.51312 16.169C9.99149 16.3145 9.99144 16.3146 9.99138 16.3148L9.99073 16.317L9.98907 16.3224L9.98306 16.3417C9.97786 16.3582 9.97027 16.3821 9.96033 16.4128C9.94044 16.4742 9.9111 16.5627 9.87249 16.6737C9.79532 16.8958 9.6809 17.2088 9.53071 17.5765C9.23152 18.309 8.78516 19.2713 8.20168 20.1648C7.62388 21.0495 6.88022 21.9159 5.9683 22.3962C5.02003 22.8956 3.92165 22.958 2.75074 22.2804C1.65892 21.6485 1.05612 20.91 0.858262 20.1043C0.662222 19.3061 0.891265 18.5522 1.22698 17.9424C1.56308 17.3319 2.03174 16.8172 2.40382 16.462C2.53413 16.3376 2.65491 16.2306 2.75742 16.1436C2.14369 14.8515 1.74778 13.842 1.53574 13.07C1.42006 12.6488 1.35443 12.2818 1.34356 11.9684C1.33285 11.6598 1.37364 11.3616 1.51224 11.1122C1.66226 10.8423 1.90139 10.676 2.18096 10.6117C2.4393 10.5522 2.70955 10.5838 2.95668 10.6475C3.44998 10.7747 4.02012 11.0754 4.59131 11.439C5.74652 12.1742 7.06823 13.2729 8.08943 14.175C8.60276 14.6285 9.04525 15.0368 9.35954 15.3319C9.51674 15.4795 9.64202 15.5989 9.72822 15.6816C9.77132 15.723 9.80467 15.7552 9.82735 15.7772L9.85328 15.8023L9.86234 15.8112ZM3.67227 16.6919L3.66544 16.6969C3.65891 16.7017 3.6485 16.7095 3.63459 16.7201C3.60675 16.7413 3.56502 16.7737 3.51249 16.8164C3.40723 16.9018 3.25971 17.0274 3.09434 17.1853C2.75949 17.505 2.37036 17.9391 2.10298 18.4247C1.83522 18.911 1.7151 19.4004 1.8294 19.8658C1.94188 20.3238 2.30894 20.8693 3.25165 21.4149C4.11525 21.9147 4.84812 21.8559 5.5023 21.5114C6.19285 21.1477 6.82285 20.4472 7.36441 19.618C7.90028 18.7974 8.31895 17.8986 8.60496 17.1984C8.74738 16.8497 8.85559 16.5535 8.92791 16.3454C8.93197 16.3338 8.93591 16.3224 8.93974 16.3113C8.86706 16.242 8.77812 16.1577 8.67506 16.0609C8.36635 15.7711 7.93149 15.3698 7.42738 14.9245C6.41374 14.0291 5.14031 12.9737 4.05439 12.2826C3.50501 11.9329 3.04308 11.7025 2.70709 11.6159C2.53958 11.5727 2.44589 11.5768 2.40527 11.5862C2.38996 11.5897 2.38994 11.5897 2.38831 11.5938C2.38787 11.5948 2.38732 11.5962 2.38633 11.598C2.37021 11.627 2.33556 11.7204 2.34296 11.9337C2.35019 12.1421 2.39623 12.4272 2.50004 12.8051C2.70764 13.561 3.12765 14.6227 3.83019 16.0671C3.93648 16.2856 3.87028 16.5488 3.67336 16.6911L3.67227 16.6919ZM9.51312 16.169L9.99138 16.3148C10.0457 16.1362 9.99586 15.9416 9.86234 15.8112L9.51312 16.169Z" fill="black"/>
<path fill-rule="evenodd" clip-rule="evenodd" d="M27.3786 20.04C27.3786 20.04 27.3747 23.3821 22.9756 24.3736C22.9756 24.3736 28.9549 25.6252 31.9507 20.8117" fill="white"/>
<path fill-rule="evenodd" clip-rule="evenodd" d="M27.3792 19.54C27.6554 19.5404 27.879 19.7645 27.8786 20.0406L27.3786 20.04C27.8786 20.0406 27.8786 20.041 27.8786 20.0413L27.8786 20.0421L27.8786 20.0438L27.8786 20.0483L27.8784 20.0608C27.8781 20.0708 27.8777 20.0839 27.877 20.1001C27.8756 20.1324 27.8729 20.1769 27.8677 20.232C27.8575 20.3421 27.8375 20.4955 27.7986 20.6806C27.7209 21.0501 27.5669 21.5502 27.2604 22.084C26.8796 22.7473 26.2747 23.4423 25.3275 24.0023C25.6234 23.985 25.9376 23.9539 26.2634 23.9035C28.0396 23.6291 30.1289 22.7926 31.5262 20.5475C31.6721 20.3131 31.9804 20.2413 32.2149 20.3872C32.4493 20.5331 32.5211 20.8415 32.3752 21.0759C30.7766 23.6443 28.3784 24.5887 26.4161 24.8918C25.436 25.0432 24.5565 25.0367 23.9221 24.9927C23.6043 24.9707 23.3463 24.9391 23.1659 24.9127C23.0757 24.8994 23.0047 24.8875 22.9552 24.8786C22.9304 24.8741 22.9111 24.8705 22.8973 24.8678L22.8809 24.8646L22.876 24.8635L22.8743 24.8632L22.8737 24.8631C22.8734 24.863 22.8732 24.863 22.9756 24.3736L22.8732 24.863C22.643 24.8148 22.4775 24.6126 22.4757 24.3774C22.4739 24.1422 22.6362 23.9375 22.8657 23.8858C24.9316 23.4202 25.9135 22.4215 26.3932 21.586C26.6376 21.1604 26.7594 20.763 26.82 20.4749C26.8502 20.3311 26.8649 20.2157 26.872 20.1392C26.8756 20.101 26.8773 20.0726 26.878 20.0555L26.8786 20.0385L26.8786 20.0388C26.8793 19.763 27.1033 19.5397 27.3792 19.54ZM26.8787 20.0367L26.8786 20.0375L26.8786 20.0383L26.8786 20.0385C26.8786 20.0374 26.8787 20.0368 26.8787 20.0367ZM26.8787 20.0367V20.0367C26.8787 20.0366 26.8787 20.0366 26.8787 20.0367Z" fill="black"/>
</svg>
