<svg width="27" height="32" viewBox="0 0 27 32" fill="none" xmlns="http://www.w3.org/2000/svg">
<path fill-rule="evenodd" clip-rule="evenodd" d="M13.5 2C9.9704 2 7.20834 4.68817 7.20834 7.88525C7.20834 11.0823 9.9704 13.7705 13.5 13.7705C17.0296 13.7705 19.7917 11.0823 19.7917 7.88525C19.7917 4.68817 17.0296 2 13.5 2ZM5.20834 7.88525C5.20834 3.47709 8.97545 0 13.5 0C18.0246 0 21.7917 3.47709 21.7917 7.88525C21.7917 12.2934 18.0246 15.7705 13.5 15.7705C8.97545 15.7705 5.20834 12.2934 5.20834 7.88525Z" fill="black"/>
<path fill-rule="evenodd" clip-rule="evenodd" d="M3.97461 21.9268C6.51017 19.5326 9.93749 18.1968 13.5 18.1968C17.0625 18.1968 20.4898 19.5326 23.0254 21.9268C25.5629 24.3229 27 27.5853 27 31.0001C27 31.2653 26.8946 31.5196 26.7071 31.7072C26.5196 31.8947 26.2652 32.0001 26 32.0001H1C0.734784 32.0001 0.48043 31.8947 0.292893 31.7072C0.105357 31.5196 0 31.2653 0 31.0001C5.96046e-08 27.5853 1.4371 24.3229 3.97461 21.9268ZM13.5 20.1968C10.4321 20.1968 7.50057 21.3481 5.34772 23.381C3.45007 25.1728 2.29506 27.5181 2.04938 30.0001H24.9506C24.7049 27.5181 23.5499 25.1728 21.6523 23.381C19.4994 21.3481 16.5679 20.1968 13.5 20.1968Z" fill="black"/>
</svg>
